<svg width="752pt" height="752pt" viewBox="0 0 752 752" fill="#fff" xmlns="http://www.w3.org/2000/svg"><path d="m172.84 268.02 207.9-105.13 207.9 105.14c8.996 4.734 5.684 17.996-4.262 17.996h-18.94v18.941c0 5.21-4.262 9.473-9.473 9.473h-350.45c-5.211 0-9.473-4.262-9.473-9.473v-18.941l-18.941-.004c-9.945 0-13.262-13.258-4.262-17.996zm411.54 264.26H177.1c-5.21 0-9.473 4.262-9.473 9.473v47.359h426.22v-47.36c0-5.206-4.261-9.472-9.468-9.472zm-317.3-198.9h-42.621c-2.84 0-4.734 1.895-4.734 4.734v127.87h-14.207c-5.211 0-9.473 4.262-9.473 9.473v37.887h369.39v-37.887c0-5.21-4.262-9.473-9.473-9.473h-14.207l-.004-127.87c0-2.84-1.894-4.734-4.734-4.734h-42.621c-2.84 0-4.735 1.895-4.735 4.734v127.87h-37.887l-.003-127.87c0-2.84-1.895-4.734-4.735-4.734h-42.62c-2.84 0-4.735 1.895-4.735 4.734v127.87h-37.887l-.004-127.87c0-2.84-1.895-4.734-4.735-4.734h-42.62c-2.84 0-4.735 1.895-4.735 4.734v127.87h-37.887l-.004-127.87c0-2.84-1.894-4.734-4.734-4.734z"/></svg>